<svg height="512pt" viewBox="-18 0 511 512" width="512pt" xmlns="http://www.w3.org/2000/svg"><path d="m80.144531 214-35.695312-79.621094 67.738281-68.847656h250.21875l68.851562 68.847656-99.65625 222.308594-59.859374 35.890625 14.835937 64.550781-9.996094 22.285156c-3.425781 7.628907-8.921875 13.902344-15.660156 18.273438-6.734375 4.359375-14.707031 6.8125-23.070313 6.8125-16.726562 0-31.886718-9.820312-38.730468-25.085938l-65.589844-146.320312-7.421875-62.394531zm0 0" fill="#ffe176"/><path d="m362.40625 65.53125h-250.21875l-67.738281 68.847656 17.6875 39.457032c6.230469-1.566407 12.140625-4.28125 17.480469-8.085938 9.605468-6.84375 20.9375-13.101562 33.683593-18.601562 40.238281-17.363282 78.652344-25.105469 124.550781-25.105469 45.90625 0 84.320313 7.742187 124.558594 25.101562 12.75 5.503907 24.078125 11.761719 33.675782 18.601563 5.339843 3.808594 11.253906 6.523437 17.484374 8.09375l17.6875-39.457032zm0 0" fill="#ffc261"/><path d="m458.019531 69.203125c-14.894531-10.101563-31.691406-19.21875-50.234375-27.21875-52.273437-22.5625-104.613281-34.484375-169.933594-34.484375-65.320312 0-117.660156 11.921875-169.933593 34.472656-18.542969 8.007813-35.34375 17.132813-50.234375 27.238282-8.695313 5.902343-12.011719 17.066406-8.066406 26.804687 6.441406 15.90625 14.125 29.183594 21.507812 39.8125 7.050781 10.160156 21.011719 12.660156 31.085938 5.488281 11.171874-7.960937 24.398437-15.324218 39.203124-21.714844 41.191407-17.773437 83.308594-27.558593 136.4375-27.558593 53.128907 0 95.257813 9.785156 136.449219 27.558593 14.792969 6.386719 28.023438 13.75 39.191407 21.710938 10.074218 7.175781 24.035156 4.675781 31.089843-5.484375 7.378907-10.632813 15.066407-23.910156 21.507813-39.820313 3.941406-9.742187.625-20.90625-8.070313-26.804687zm0 0" fill="#fda756"/><path d="m172.074219 273.554688c0 26.515624-15.824219 49.339843-38.542969 59.542968l-53.386719-119.097656c8.148438-3.660156 17.179688-5.695312 26.691407-5.695312 36.03125 0 65.238281 29.207031 65.238281 65.25zm0 0" fill="#f55d67"/><path d="m331.601562 356.6875-45.023437 100.441406c-3.085937.453125-6.246094.6875-9.457031.6875-36.027344 0-65.234375-29.207031-65.234375-65.238281 0-36.027344 29.207031-65.234375 65.234375-65.234375 22.769531 0 42.816406 11.664062 54.480468 29.34375zm0 0" fill="#f55d67"/><path d="m335.164062 207.804688c0 36.03125-29.210937 65.242187-65.242187 65.242187s-65.242187-29.210937-65.242187-65.242187c0-36.035157 29.210937-65.242188 65.242187-65.242188s65.242187 29.207031 65.242187 65.242188zm0 0" fill="#ff3d5d"/><path d="m169.316406 60.027344v-13.757813c0-4.144531-3.359375-7.5-7.5-7.5-4.144531 0-7.5 3.355469-7.5 7.5v13.757813c0 4.144531 3.355469 7.5 7.5 7.5 4.140625 0 7.5-3.355469 7.5-7.5zm0 0"/><path d="m321.390625 60.027344v-13.757813c0-4.144531-3.359375-7.5-7.5-7.5-4.144531 0-7.5 3.355469-7.5 7.5v13.757813c0 4.144531 3.355469 7.5 7.5 7.5 4.140625 0 7.5-3.355469 7.5-7.5zm0 0"/><path d="m237.851562 74.875c9.480469 0 18.378907-3.960938 24.414063-10.867188 2.726563-3.117187 2.410156-7.855468-.710937-10.582031-3.117188-2.726562-7.855469-2.410156-10.582032.710938-3.1875 3.644531-7.96875 5.738281-13.121094 5.738281-5.148437 0-9.929687-2.09375-13.117187-5.738281-2.726563-3.121094-7.464844-3.4375-10.585937-.710938-3.117188 2.726563-3.4375 7.464844-.710938 10.582031 6.039062 6.90625 14.9375 10.867188 24.414062 10.867188zm0 0"/><path d="m197.179688 207.804688c0 40.109374 32.632812 72.742187 72.742187 72.742187s72.742187-32.632813 72.742187-72.742187c0-40.113282-32.632812-72.742188-72.742187-72.742188s-72.742187 32.628906-72.742187 72.742188zm130.484374 0c0 31.835937-25.902343 57.742187-57.742187 57.742187s-57.742187-25.90625-57.742187-57.742187c0-31.839844 25.902343-57.742188 57.742187-57.742188s57.742187 25.902344 57.742187 57.742188zm0 0"/><path d="m412.097656 149.277344c1.136719.625 2.3125 1.175781 3.523438 1.648437l-28.046875 62.5625c-1.691407 3.777344-.003907 8.214844 3.777343 9.910157 3.726563 1.671874 8.238282-.039063 9.910157-3.773438 0 0 30.101562-67.148438 30.128906-67.152344 7.898437-1.375 14.769531-5.769531 19.351563-12.367187 8.886718-12.804688 16.390624-26.695313 22.296874-41.285157 5.246094-12.949218.699219-28.015624-10.808593-35.824218-15.292969-10.375-32.609375-19.761719-51.472657-27.898438-56.234374-24.273437-109.5625-35.097656-172.90625-35.097656-63.335937 0-116.660156 10.820312-172.90625 35.089844-18.855468 8.140625-36.175781 17.53125-51.472656 27.914062-11.507812 7.808594-16.050781 22.875-10.808594 35.824219 5.910157 14.59375 13.414063 28.480469 22.300782 41.277344 4.582031 6.601562 11.453125 10.992187 19.375 12.371093l147.9375 330.007813c8.039062 17.929687 25.925781 29.515625 45.574218 29.515625 9.65625 0 19.042969-2.773438 27.152344-8.019531 8.09375-5.25 14.464844-12.683594 18.421875-21.496094l104.703125-233.566406c1.695313-3.78125.003906-8.21875-3.773437-9.914063-3.78125-1.695312-8.21875-.003906-9.914063 3.777344l-44.65625 99.617188c-.050781-.054688-.105468-.101563-.15625-.15625-13.570312-14.222657-32.859375-22.398438-52.507812-22.398438-40.105469 0-72.738282 32.628906-72.738282 72.734375 0 38.484375 31.816407 71.507813 70.320313 72.699219l-4.960937 11.066406c-2.773438 6.167969-7.234376 11.375-12.894532 15.046875-5.667968 3.667969-12.238281 5.609375-18.996094 5.609375-13.746093 0-26.261718-8.105469-31.886718-20.652344l-62.679688-139.832031c.070313-.042969.136719-.085937.207032-.125 22.019531-12.882813 36.082031-37.304687 36.082031-62.835937 0-40.113282-32.628907-72.75-72.734375-72.75-7.695313 0-15.363282 1.226562-22.675782 3.605468-.03125.007813-.058593.015625-.089843.027344l-23.992188-53.519531c.035157-.011719.066407-.027344.101563-.039063 2.214844-.882812 4.410156-2.054687 6.378906-3.457031 12.925781-9.210937 27.074219-16.46875 41.695312-22.578125 3.820313-1.597656 5.621094-5.992188 4.023438-9.8125-1.597656-3.824219-5.992188-5.625-9.8125-4.027344-6.933594 2.898438-13.769531 6.023438-20.433594 9.496094-8.738281 4.550781-16.828125 9.472656-24.195312 14.714844-6.503906 4.636718-15.9375 2.984375-20.554688-3.664063-8.253906-11.886719-15.222656-24.789062-20.71875-38.351562-2.648437-6.542969-.457031-13.855469 5.328125-17.785157 14.519531-9.851562 31.003907-18.785156 48.996094-26.554687 54.273437-23.417969 105.765625-33.859375 166.960937-33.859375 61.203126 0 112.695313 10.445312 166.964844 33.867188 17.996094 7.769531 34.480469 16.695312 48.992188 26.539062 5.785156 3.929688 7.976562 11.242188 5.328125 17.785156-5.492188 13.5625-12.460938 26.464844-20.71875 38.359375-4.589844 6.609375-13.984375 8.347657-20.574219 3.652344-11.75-8.371094-25.398438-15.9375-40.574219-22.488281-45.15625-19.484375-88.15625-28.175782-139.417969-28.175782-37.375 0-71.265624 4.871094-103.617187 14.886719-3.882813 1.203125-6.152344 5.488281-4.945313 9.382813 1.195313 3.859375 5.519532 6.144531 9.382813 4.949218 32.136719-9.96875 65.589844-14.21875 99.179687-14.21875 49.117188 0 90.285157 8.3125 133.476563 26.949219 14.203125 6.128907 26.925781 13.171875 37.8125 20.933594.949219.671875 1.933594 1.292969 2.957031 1.855469zm-134.976562 185.585937c17.726562.105469 35.097656 8.574219 45.878906 22.671875l-41.511719 92.613282c-.03125.003906-2.9375.167968-4.363281.167968-30.84375 0-56.113281-24.304687-57.664062-54.769531-1.542969-30.359375 22.894531-58.292969 53.253906-60.535156 1.46875-.109375 2.9375-.15625 4.40625-.148438zm-112.546875-61.308593c0 19.816406-10.628907 38.773437-27.472657 49.167968 0 0-46.839843-104.488281-46.839843-104.488281-.003907-.007813 3.929687-1.042969 4.300781-1.125 35.445312-7.648437 70.011719 20.167969 70.011719 56.445313zm0 0"/></svg>